<?xml version="1.0" encoding="utf-8"?>
<!-- Generator: Adobe Illustrator 16.0.0, SVG Export Plug-In . SVG Version: 6.00 Build 0)  -->
<!DOCTYPE svg PUBLIC "-//W3C//DTD SVG 1.1//EN" "http://www.w3.org/Graphics/SVG/1.1/DTD/svg11.dtd">
<svg version="1.1" id="Layer_1" xmlns="http://www.w3.org/2000/svg" xmlns:xlink="http://www.w3.org/1999/xlink" x="0px" y="0px"
	 width="350px" height="280px" viewBox="0 0 350 280" enable-background="new 0 0 350 280" xml:space="preserve">
<g>
	<path fill="#221F20" d="M235.295,119.99l-22.862-13.861l22.699,5.58l-34.061-21.781l-31.944,10.569l-31.924-10.569l-30.243,20.701
		l18.902-4.5l-22.861,13.861c0,0-6.48,25.562,7.56,45.544l8.641-12.421l-0.36,23.401l18.239,18.001l4.919-7.199v12.239L169.066,226
		h0.082l0,0L198,199.556v-12.239l4.066,7.199l17.734-18.001l-0.533-23.401l8.555,12.421
		C241.861,145.553,235.295,119.99,235.295,119.99z"/>
	<g>
		<path fill="none" d="M193.625,164.032l-9.079,1.996l10.47-0.774c-0.542-1.745-1.22-3.469-1.971-5.121L193.625,164.032z"/>
		<path fill="#CCCCCC" d="M150.29,173.655c0,0,0.906,1.952,4.017,1.554l0.886-5.186L150.29,173.655z"/>
		<path fill="#CCCCCC" d="M185.027,146.899c0,0,4.694,5.909,8.018,13.233l-1.418-9.538c7.627-3.48,10.618-8.631,11.665-11.104
			C199.466,142.689,192.19,147.713,185.027,146.899z"/>
		<path fill="#CCCCCC" d="M195.092,130.996l-0.015-0.012l-3.812,1.998c-1.271,7.989-8.717,7.264-8.717,7.264l-0.213,2.182
			C186.109,143.404,194.176,143.931,195.092,130.996z"/>
		<path fill="#CCCCCC" d="M187.994,173.655l-4.901-3.632l0.886,5.186C187.09,175.607,187.994,173.655,187.994,173.655z"/>
		<path fill="#CCCCCC" d="M193.987,167.481l-9.441-1.453l9.112,3.314C193.944,168.365,193.987,167.481,193.987,167.481z"/>
		<path fill="#CCCCCC" d="M179.279,159.855c-7.082,2.359-7.808,8.716-7.808,8.716l3.8,2.308c0.787-2.93,2.588-8.182,6.132-12.211
			L179.279,159.855z"/>
		<path fill="#CCCCCC" d="M147.724,113.482c-1.841,1.488-3.468,3.113-4.152,4.607c0,0-0.991,4.314-0.405,7.514l13.63,6.687
			C146.254,126.225,146.407,118.217,147.724,113.482z"/>
		<path fill="#CCCCCC" d="M162.85,171.012l3.964-2.423c0,0-0.726-6.331-7.809-8.69L153.776,157h-0.037
			C160.643,161,162.432,167.188,162.85,171.012z"/>
		<path fill="#CCCCCC" d="M153.03,166l-8.732,1.412c0,0,0.116,2.397,1.273,3.653l8.168-5.065H153.03z"/>
		<path fill="#FFFFFF" d="M193.045,160.133c-3.323-7.324-8.018-13.233-8.018-13.233c7.163,0.813,14.438-4.21,18.265-7.408
			c0.374-0.882,0.502-1.426,0.502-1.426l-8.702-7.069c-0.916,12.935-8.982,12.409-12.757,11.431l-0.513,5.263l-2.36,2.906
			l-0.361-8.895c-6.718-4.54-5.082-9.892-5.082-9.892c0.909,4.448,5.271,6.273,5.271,6.273l1.463-5.43l4.852-2.381
			c6.265-5.917,5.793-12.825,4.659-17c-3.478-2.752-7.583-4.987-7.583-4.987l-13.587,7.218l-13.538-7.218
			c0,0-4.308,2.351-7.831,5.198c-1.317,4.734-1.47,12.742,9.073,18.808l0.735,0.362l1.463,5.43c0,0,4.363-1.825,5.271-6.273
			c0,0,1.637,5.353-5.082,9.892l-0.361,8.895l-2.36-2.906l-0.518-5.312c-9.585,3.279-12.096-6.89-12.73-11.39l-0.007-0.004
			l-8.716,7.082c0,0,0.061,0.257,0.218,0.702c3.511,3.165,11.43,9.313,18.685,7.897c0,0-4.834,8.002-8.409,15.179l-0.326,2.189
			l9.079,1.927L153.03,166h0.709l-8.168,5.1c0.292,0.316,0.648,0.595,1.087,0.705l8.535-1.798l-0.886,5.194
			c1.724-0.22,4.121-1.152,7.422-3.548l1.121-0.644c-0.418-3.824-2.207-10.01-9.111-14.01h0.037l-0.944-0.561
			c0,0,1.957-2.922,7.585-0.018l8.676,3.805l8.726-3.818c5.629-2.904,7.635-0.002,7.635-0.002l-4.049,2.263
			c-3.544,4.03-5.346,9.281-6.132,12.21l1.284,0.779c3.302,2.394,5.699,3.333,7.423,3.551l-0.886-5.186l8.534,1.816
			c1.131-0.282,1.723-1.444,2.031-2.497l-9.112-3.314l9.079-1.996L193.045,160.133z"/>
		<path fill="#CCCCCC" d="M185.604,130.271l9.515-4.667c0.585-3.199-0.429-7.514-0.429-7.514c-0.719-1.566-2.474-3.273-4.427-4.818
			C191.396,117.446,191.868,124.354,185.604,130.271z"/>
		<path fill="#CCCCCC" d="M155.945,142.377l-0.208-2.132c0,0-7.446,0.725-8.717-7.264l-3.806-1.994
			C143.849,135.487,146.359,145.656,155.945,142.377z"/>
		<path fill="#CCCCCC" d="M134.71,138.767c0.717,2.019,3.466,7.958,11.948,11.828l-1.672,11.248
			c3.575-7.177,8.409-15.179,8.409-15.179C146.14,148.08,138.221,141.932,134.71,138.767z"/>
		<path fill="#FFFFFF" d="M168.93,177.352c-5.027,0-9.006,4.31-10.651,6.418c0.427,0.804,1.057,1.585,1.982,2.258l1.568-3.838
			c0,0,0.171,6.447,7.171,7.049v0.033c0-0.004-0.059-0.011,0-0.017c0.06,0.006,0,0.013,0,0.017v-0.033
			c5-0.602,7.104-7.049,7.104-7.049l1.478,3.838c1.01-0.735,1.682-1.599,2.105-2.479C176.539,178.557,168.93,177.352,168.93,177.352
			z"/>
		<path fill="#CCCCCC" d="M180.1,178.195l-11.1-5.982v-0.191v0.095v-0.095v0.191l-11.16,5.982c0,0-0.914,2.908,0.504,5.574
			c1.646-2.108,5.591-6.418,10.618-6.418c0,0,7.582,1.205,10.731,6.197C180.951,180.947,180.1,178.195,180.1,178.195z"/>
	</g>
	<path fill="#221F20" d="M200.005,65.372c0,0,7.811,1.871,0.268,8.235c0,0-6.272,2.577-7.272-4.964V53.56
		c0,0-3.081,21.684-13.924,17.205c0,0-7.809-7.141,2.23-9.192c0,0-10.444-8.236-11.239-18.466c-0.044,0.012-0.124,0.019-0.169,0.029
		c-0.046-0.01-0.11-0.017-0.154-0.029c-0.795,10.229-11.184,18.466-11.184,18.466c10.038,2.051,2.234,9.192,2.234,9.192
		C149.953,75.244,147,53.56,147,53.56v15.083c0,7.542-7.406,4.964-7.406,4.964c-7.542-6.364,0.074-8.235,0.074-8.235
		c-3.3-3.771-22.096-5.992-22.096-5.992c11.785,4.713,20.299,29.037,20.299,29.037l31.281,10.156l32.534-10.368
		c0,0,8.659-24.165,20.445-28.877C222.131,59.328,203.303,61.601,200.005,65.372z"/>
</g>
<text transform="matrix(1 0 0 1 74.9053 50.5947)" font-family="'Luminari-Regular'" font-size="48">Dancing</text>
<text transform="matrix(1 0 0 1 121.4717 256.667)" font-family="'Luminari-Regular'" font-size="48">Lion</text>
</svg>
